<svg width="30" height="24" viewBox="0 0 30 24" fill="none" xmlns="http://www.w3.org/2000/svg">
    <path d="M10.16.076c2.15-.4 4.471.805 5.434 2.835.552 1.124.725 2.453.423 3.68-.372 1.597-1.487 3-2.957 3.645-.88.369-1.857.558-2.802.385-1.33-.19-2.563-.954-3.381-2.049-.602-.854-1.002-1.881-1.042-2.943C5.688 3.429 7.03 1.218 9.02.414a5.831 5.831 0 0 1 1.14-.338z" fill="#F9DC57"/>
    <path d="M21.242.622c.19-.026.383-.019.575-.02 1.902.004 3.804-.001 5.706.003.51.008 1.018.21 1.382.581.468.443.68 1.144.564 1.784-.054.255-.147.498-.23.744-.71 2.073-1.41 4.15-2.124 6.221a1.953 1.953 0 0 1-1.815 1.271c-2.026.008-4.052.004-6.077.002-.634-.001-1.279-.296-1.638-.848-.394-.548-.45-1.305-.213-1.932.736-2.152 1.466-4.306 2.202-6.458A1.993 1.993 0 0 1 21.242.622zM4.217 13.457c.21-.037.424-.06.637-.065h5.777c.42 0 .857.059 1.216.3.737.464 1.107 1.452.834 2.304-.728 2.153-1.467 4.303-2.196 6.456-.108.336-.251.673-.507.918-.376.425-.943.625-1.492.628H2.482c-.618.001-1.24-.292-1.602-.816a2.064 2.064 0 0 1-.27-1.859c.735-2.17 1.48-4.335 2.213-6.505.197-.66.739-1.201 1.394-1.361z" fill="#F19A3C"/>
    <path d="M16.946 13.408c2.043-.038 4.09-.005 6.134-.016.706-.02 1.443.33 1.8.977.328.538.343 1.234.128 1.817-.735 2.148-1.465 4.299-2.197 6.447-.226.678-.82 1.222-1.51 1.329-.245.05-.495.037-.743.037-1.925-.003-3.85.003-5.777-.003-.843-.002-1.615-.648-1.835-1.48-.115-.403-.08-.84.058-1.232.748-2.188 1.49-4.38 2.239-6.567.248-.74.946-1.275 1.703-1.31z" fill="#EC5A29"/>
</svg>
