<svg width="161" height="39" viewBox="0 0 161 39" fill="none" xmlns="http://www.w3.org/2000/svg">
    <g clip-path="url(#zq79rdy1ga)">
        <path d="M15.888.215c3.532-.635 7.343 1.28 8.923 4.507.907 1.787 1.19 3.898.695 5.848-.61 2.54-2.442 4.77-4.856 5.794-1.445.587-3.05.887-4.6.612-2.185-.301-4.21-1.515-5.553-3.256-.988-1.359-1.646-2.99-1.71-4.68-.242-3.495 1.962-7.01 5.23-8.287a9.815 9.815 0 0 1 1.87-.538z" fill="#F9DC57"/>
        <path d="M34.087 1.084c.312-.043.628-.03.943-.032 3.124.005 6.246-.002 9.37.004.837.013 1.671.333 2.27.924.768.703 1.116 1.817.925 2.835-.089.405-.242.792-.378 1.183-1.167 3.295-2.315 6.596-3.487 9.888-.45 1.213-1.697 2.026-2.98 2.02-3.327.013-6.654.007-9.98.004-1.042-.002-2.1-.47-2.69-1.349-.647-.87-.737-2.073-.349-3.07 1.21-3.421 2.407-6.845 3.615-10.265.388-1.172 1.522-2.028 2.74-2.142zM6.13 21.484a7.387 7.387 0 0 1 1.046-.103c3.163 0 6.325.002 9.486-.002.689.002 1.407.095 1.997.477 1.21.738 1.817 2.31 1.37 3.664-1.197 3.423-2.41 6.84-3.607 10.262-.178.534-.413 1.07-.832 1.46-.618.675-1.549.992-2.45.998-3.287-.002-6.573 0-9.86-.001-1.014.002-2.035-.463-2.63-1.297a3.194 3.194 0 0 1-.443-2.954c1.206-3.448 2.429-6.89 3.634-10.34.324-1.051 1.213-1.91 2.288-2.164z" fill="#F19A3C"/>
        <path d="M27.032 21.406c3.354-.06 6.714-.008 10.072-.025 1.16-.033 2.37.525 2.956 1.553.537.855.562 1.96.21 2.889-1.208 3.414-2.406 6.832-3.609 10.247-.37 1.077-1.345 1.941-2.48 2.112-.401.079-.81.058-1.218.06-3.162-.005-6.324.004-9.486-.005-1.385-.004-2.653-1.03-3.013-2.353-.19-.64-.133-1.334.093-1.958 1.23-3.479 2.448-6.961 3.677-10.439.408-1.176 1.553-2.027 2.798-2.08z" fill="#EC5A29"/>
        <path d="M59.789 12.972c1.216-.738 2.659-1.01 4.067-1.012 1.783-.033 3.587.343 5.167 1.182-.328 1.054-.765 2.07-1.103 3.122-1.507-.748-3.234-1.192-4.914-.864-.544.09-1.113.358-1.352.884-.166.49-.13 1.099.25 1.484.713.78 1.79 1.018 2.734 1.404 1.436.567 2.99 1.082 4.052 2.264 1.086 1.099 1.237 2.774 1.098 4.237-.107 1.43-1.012 2.733-2.262 3.413-1.19.656-2.565.863-3.906.91-2.192.06-4.47-.231-6.411-1.31.362-1.044.738-2.082 1.103-3.125.871.371 1.746.756 2.685.926 1.198.19 2.454.314 3.633-.05.576-.18 1.115-.662 1.144-1.299.109-.667-.256-1.33-.823-1.67-1.855-1.176-4.215-1.378-5.902-2.848a4.696 4.696 0 0 1-1.257-1.77c-.257-.615-.245-1.292-.24-1.944-.041-1.592.901-3.11 2.237-3.934zM80.335 12.004c2.258-.218 4.655.257 6.478 1.659 2.165 1.658 3.208 4.464 3.163 7.136.076 2.182-.454 4.445-1.805 6.194-.637.783-1.397 1.479-2.29 1.957-1.751.925-3.793 1.204-5.747.983-1.932-.21-3.832-1.051-5.154-2.5-1.246-1.374-1.97-3.174-2.15-5.011-.166-1.906-.07-3.902.754-5.66.848-1.895 2.44-3.479 4.397-4.201a9.48 9.48 0 0 1 2.354-.557zm.46 3.43c-1.388.128-2.61 1.062-3.254 2.272-.679 1.317-.825 2.844-.685 4.302.177 1.231.587 2.499 1.518 3.37.97.998 2.462 1.36 3.81 1.119 1.262-.2 2.37-1.046 2.984-2.156.738-1.366.874-2.974.705-4.494-.186-1.221-.622-2.474-1.562-3.322-.916-.9-2.262-1.248-3.516-1.091zM120.793 12.104c2.316-.365 4.773-.067 6.857 1.039-.329 1.053-.765 2.07-1.103 3.12-1.507-.749-3.234-1.191-4.914-.863-.543.09-1.113.358-1.352.884-.166.49-.13 1.099.25 1.484.713.78 1.789 1.018 2.733 1.403 1.462.576 3.048 1.105 4.112 2.328.72.748 1.013 1.807 1.059 2.822.129 1.356-.144 2.85-1.129 3.853-1.127 1.253-2.872 1.67-4.489 1.794-2.375.14-4.868-.113-6.981-1.282.365-1.044.732-2.086 1.111-3.126 1.637.793 3.465 1.238 5.29 1.076.707-.072 1.509-.23 1.946-.855.468-.737.213-1.808-.533-2.264-1.631-1.066-3.638-1.34-5.284-2.378-1.039-.657-1.886-1.697-2.127-2.92-.13-1.186-.133-2.47.518-3.517.797-1.489 2.42-2.327 4.036-2.598zM153.005 12.036c2.174-.246 4.447.07 6.392 1.106-.329 1.054-.766 2.07-1.104 3.122-1.39-.693-2.951-1.114-4.511-.931-.535.078-1.119.181-1.507.592-.392.376-.41.995-.242 1.48.315.62.961.971 1.577 1.232 1.374.557 2.809.988 4.102 1.727 1.097.621 2.063 1.625 2.322 2.895.36 1.684.257 3.698-1.041 4.977-.813.886-1.987 1.333-3.14 1.566-1.495.262-3.028.263-4.529.065-1.303-.173-2.592-.537-3.742-1.181.365-1.043.733-2.086 1.11-3.125 1.069.474 2.177.922 3.355 1.02 1.121.132 2.338.192 3.371-.333 1.003-.521.961-2.09.049-2.68-1.73-1.18-3.937-1.398-5.639-2.627a4.72 4.72 0 0 1-1.697-2.18c-.239-.63-.209-1.318-.202-1.98-.005-1.402.774-2.728 1.872-3.566.933-.676 2.065-1.043 3.204-1.18zM93.818 12.334c1.308.018 2.616.012 3.925.002-.001 4.654-.018 9.309.009 13.962 2.553.019 5.106-.002 7.659.009a106.022 106.022 0 0 0-.002 3.336c-3.866.01-7.732-.001-11.597.005.013-5.771.002-11.543.006-17.314zM108.416 12.335c1.308.014 2.616.012 3.923.001-.004 5.769-.013 11.54.005 17.308-1.312.006-2.625 0-3.936.004.016-5.771-.001-11.542.008-17.313zM141.776 12.704c.085-.125.125-.373.318-.36 1.404-.007 2.81.008 4.215-.006a119.648 119.648 0 0 1-3.928 7.08c-.701 1.224-1.508 2.388-2.212 3.61-.116.91-.013 1.84-.046 2.758 0 1.278-.001 2.557.002 3.835a79.751 79.751 0 0 1-3.925.002c-.021-2.093-.001-4.185-.007-6.277a.863.863 0 0 0-.163-.52 123.545 123.545 0 0 1-4.874-8.247c-.349-.747-.816-1.438-1.101-2.214 1.494-.033 2.99-.016 4.485-.008.973 1.977 1.909 3.978 3.024 5.884.231.374.391.8.708 1.116 1.249-2.173 2.5-4.352 3.504-6.652z" fill="#302D38"/>
    </g>
    <defs>
        <clipPath id="zq79rdy1ga">
            <path fill="#fff" d="M0 0h160.312v38.314H0z"/>
        </clipPath>
    </defs>
</svg>
