<svg width="24" height="24" viewBox="0 0 24 24" fill="none" xmlns="http://www.w3.org/2000/svg">
    <mask id="nlkjxm4gna" style="mask-type:alpha" maskUnits="userSpaceOnUse" x="2" y="0" width="20" height="23">
        <path d="m6.375 21.56.675-.738-.675.738zm-.483-.442.675-.738-.675.738zm12.216 0-.675-.738.675.738zm-.483.442-.675-.738.675.738zm1.767-.442-.675.737.675-.737zm-14.784 0-.675-.738.675.738zM18.961 2.163l-.329.944.329-.944zm1.881 1.936.95-.311-.95.311zM5.039 2.163l.329.944-.329-.944zM3.158 4.099l.95.312-.95-.312zM10.5 10a1 1 0 1 0 0 2v-2zm6.5 2a1 1 0 1 0 0-2v2zM7 10a1 1 0 1 0 0 2v-2zm.5 2a1 1 0 1 0 0-2v2zM7 6.5a1 1 0 0 0 0 2v-2zm.5 2a1 1 0 0 0 0-2v2zm-.5 5a1 1 0 1 0 0 2v-2zm.5 2a1 1 0 1 0 0-2v2zm3-9a1 1 0 0 0 0 2v-2zm6.5 2a1 1 0 1 0 0-2v2zm-6.5 5a1 1 0 1 0 0 2v-2zm6.5 2a1 1 0 1 0 0-2v2zM7.245 3h9.51V1h-9.51v2zM20 6.37v14.004h2V6.37h-2zM4 20.374V6.37H2v14.004h2zm3.05.448-.483-.442-1.35 1.475.483.442 1.35-1.475zm10.383-.442-.483.442 1.35 1.475.483-.442-1.35-1.475zm2.634 0a1.946 1.946 0 0 0-2.634 0l1.35 1.475a.042.042 0 0 1-.013.008.057.057 0 0 1-.04 0 .042.042 0 0 1-.013-.008l1.35-1.475zm-4.017.442a2.657 2.657 0 0 0-3.6 0l1.35 1.475a.657.657 0 0 1 .9 0l1.35-1.475zm-4.5 0a2.657 2.657 0 0 0-3.6 0l1.35 1.475a.657.657 0 0 1 .9 0l1.35-1.475zm-4.983-.442a1.946 1.946 0 0 0-2.634 0l1.35 1.475a.042.042 0 0 1-.013.008.058.058 0 0 1-.04 0 .042.042 0 0 1-.013-.008l1.35-1.475zM5.7 22.297a2.657 2.657 0 0 0 3.6 0l-1.35-1.475a.657.657 0 0 1-.9 0L5.7 22.297zm9 0a2.657 2.657 0 0 0 3.6 0l-1.35-1.475a.657.657 0 0 1-.9 0l-1.35 1.475zm-4.5 0a2.657 2.657 0 0 0 3.6 0l-1.35-1.475a.657.657 0 0 1-.9 0l-1.35 1.475zM2 20.374c0 1.668 1.974 2.68 3.283 1.481l-1.35-1.475c-.004.004-.003.002.004-.001a.084.084 0 0 1 .024-.008.053.053 0 0 1 .029.003c.002 0 .005.002.008.007a.025.025 0 0 1 .003.007L4 20.374H2zm18 0-.001.014.003-.007a.018.018 0 0 1 .008-.007.053.053 0 0 1 .029-.002.086.086 0 0 1 .024.007c.007.003.008.005.004 0l-1.35 1.476c1.309 1.198 3.283.187 3.283-1.48h-2zM16.755 3c1.242 0 1.61.014 1.877.107l.657-1.889C18.622.986 17.831 1 16.755 1v2zM22 6.37c0-1.114.013-1.911-.208-2.582l-1.9.623c.095.291.108.687.108 1.96h2zm-3.368-3.263c.584.203 1.055.68 1.26 1.304l1.9-.623a4.045 4.045 0 0 0-2.503-2.57l-.657 1.89zM7.245 1c-1.076 0-1.867-.014-2.534.218l.657 1.89C5.636 3.013 6.003 3 7.245 3V1zM4 6.37c0-1.272.013-1.668.108-1.959l-1.9-.623C1.988 4.458 2 5.256 2 6.37h2zm.71-5.152a4.045 4.045 0 0 0-2.502 2.57l1.9.623a2.046 2.046 0 0 1 1.26-1.304l-.657-1.889zM10.5 12H17v-2h-6.5v2zM7 12h.5v-2H7v2zm0-3.5h.5v-2H7v2zm0 7h.5v-2H7v2zm3.5-7H17v-2h-6.5v2zm0 7H17v-2h-6.5v2z" fill="#1C274C"/>
    </mask>
    <g mask="url(#nlkjxm4gna)">
        <path fill="currentColor" d="M0 0h24v24H0z"/>
    </g>
</svg>
