<svg width="24" height="24" viewBox="0 0 24 24" fill="none" xmlns="http://www.w3.org/2000/svg">
    <mask id="65xdcrmcsa" style="mask-type:alpha" maskUnits="userSpaceOnUse" x="1" y="1" width="22" height="22">
        <path d="M5 12a7 7 0 0 1 7-7m4.5 2.5L12 12m10 0c0 5.523-4.477 10-10 10S2 17.523 2 12 6.477 2 12 2s10 4.477 10 10zm-9 0a1 1 0 1 1-2 0 1 1 0 0 1 2 0z" stroke="currentColor" stroke-width="2" stroke-linecap="round" stroke-linejoin="round"/>
    </mask>
    <g mask="url(#65xdcrmcsa)">
        <path fill="currentColor" d="M0 0h24v24H0z"/>
    </g>
</svg>
