<svg width="24" height="24" viewBox="0 0 24 24" fill="none" xmlns="http://www.w3.org/2000/svg">
    <g clip-path="url(#bltmq513pa)">
        <mask id="9z8hrrnjvb" style="mask-type:alpha" maskUnits="userSpaceOnUse" x="-1" y="-1" width="26" height="26">
            <path d="M5.933 4.08a.806.806 0 0 0 .552.214c.2 0 .399-.07.551-.212a.688.688 0 0 0 0-1.025l-.548-.51a.82.82 0 0 0-1.104-.001.688.688 0 0 0 0 1.024l.549.51zM17.515 4.294c.2 0 .4-.07.552-.213l.55-.51a.689.689 0 0 0 0-1.025.82.82 0 0 0-1.104 0l-.549.511a.689.689 0 0 0 0 1.025.808.808 0 0 0 .551.212zM19.8 9.418h.777c.431 0 .78-.325.78-.725 0-.4-.349-.725-.78-.725H19.8c-.43 0-.78.325-.78.725 0 .4.349.725.78.725zM3.423 9.418H4.2c.43 0 .78-.325.78-.725 0-.4-.35-.725-.78-.725h-.777c-.43 0-.78.325-.78.725 0 .4.35.725.78.725zM12 2.172c.431 0 .78-.324.78-.725V.725c0-.4-.349-.725-.78-.725-.43 0-.78.325-.78.725v.721c0 .402.35.726.78.726zM7.249 9.254c.453.008.792-.3.806-.7C8.128 6.57 9.861 5.017 12 5.017c2.14 0 3.873 1.554 3.945 3.537.015.391.361.7.78.7h.027c.43-.014.768-.35.753-.75-.102-2.767-2.52-4.937-5.505-4.937-2.984 0-5.402 2.17-5.505 4.938-.014.4.323.735.754.749zM23.944 22.378l-3.297-10.445c-.17-.535-.707-.91-1.309-.91H4.662c-.6 0-1.138.375-1.308.911L.056 22.377c-.122.387-.043.794.217 1.116.26.323.657.507 1.09.507h21.274c.433 0 .83-.184 1.09-.507.26-.323.338-.73.217-1.115zm-3.613-6.292h-7.55v-3.612h6.41l1.14 3.612zM4.809 12.474h6.411v3.612H3.67l1.14-3.612zm-1.598 5.062h8.009v5.014H1.628l1.583-5.014zm9.57 5.014v-5.014h8.008l1.583 5.014H12.78z" fill="#000"/>
            <path d="M5.933 4.08a.806.806 0 0 0 .552.214c.2 0 .399-.07.551-.212a.688.688 0 0 0 0-1.025l-.548-.51a.82.82 0 0 0-1.104-.001.688.688 0 0 0 0 1.024l.549.51zM17.515 4.294c.2 0 .4-.07.552-.213l.55-.51a.689.689 0 0 0 0-1.025.82.82 0 0 0-1.104 0l-.549.511a.689.689 0 0 0 0 1.025.808.808 0 0 0 .551.212zM19.8 9.418h.777c.431 0 .78-.325.78-.725 0-.4-.349-.725-.78-.725H19.8c-.43 0-.78.325-.78.725 0 .4.349.725.78.725zM3.423 9.418H4.2c.43 0 .78-.325.78-.725 0-.4-.35-.725-.78-.725h-.777c-.43 0-.78.325-.78.725 0 .4.35.725.78.725zM12 2.172c.431 0 .78-.324.78-.725V.725c0-.4-.349-.725-.78-.725-.43 0-.78.325-.78.725v.721c0 .402.35.726.78.726zM7.249 9.254c.453.008.792-.3.806-.7C8.128 6.57 9.861 5.017 12 5.017c2.14 0 3.873 1.554 3.945 3.537.015.391.361.7.78.7h.027c.43-.014.768-.35.753-.75-.102-2.767-2.52-4.937-5.505-4.937-2.984 0-5.402 2.17-5.505 4.938-.014.4.323.735.754.749zM23.944 22.378l-3.297-10.445c-.17-.535-.707-.91-1.309-.91H4.662c-.6 0-1.138.375-1.308.911L.056 22.377c-.122.387-.043.794.217 1.116.26.323.657.507 1.09.507h21.274c.433 0 .83-.184 1.09-.507.26-.323.338-.73.217-1.115zm-3.613-6.292h-7.55v-3.612h6.41l1.14 3.612zM4.809 12.474h6.411v3.612H3.67l1.14-3.612zm-1.598 5.062h8.009v5.014H1.628l1.583-5.014zm9.57 5.014v-5.014h8.008l1.583 5.014H12.78z" stroke="#000" stroke-width=".2"/>
        </mask>
        <g mask="url(#9z8hrrnjvb)">
            <path fill="currentColor" d="M0 0h24v24H0z"/>
        </g>
    </g>
    <defs>
        <clipPath id="bltmq513pa">
            <path fill="#fff" d="M0 0h24v24H0z"/>
        </clipPath>
    </defs>
</svg>
